# xmcd
#
# Track frame offsets:
# 225
# 8602
# 36837
# 49445
# 77580
# 111480
# 124857
# 144037
# 154212
# 162490
# 179750
# 210687
# 227277
# 248802
# 256125
# 276410
#
# Disc length: 3961 seconds
#
#
# Revision: 4
# Processed by: cddbd v1.5PL3 Copyright (c) Steve Scherf et al.
# Submitted via: FreeRIP 2.53 
#
DISCID=dd0f7610
DTITLE=Cuby and Blizzards - Desolation - Groeten uit Grollo
DYEAR=1967
DGENRE=Blues
TTITLE0=Things I Remember
TTITLE1=Hobo Blues
TTITLE2=Just For Fun
TTITLE3=I'm In Love
TTITLE4=Gin House Blues
TTITLE5=Desolation Blues
TTITLE6=Five Long Years
TTITLE7=Let's Make It
TTITLE8=Another Day, Another Road
TTITLE9=The Big Bell
TTITLE10=Somebody Will Know Someday
TTITLE11=So Many Roads
TTITLE12=King Of The World
TTITLE13=Baby, Please Don't Go (Back To New Orleans)
TTITLE14=No Shoes
TTITLE15=Another Land
EXTD=
EXTT0=
EXTT1=
EXTT2=
EXTT3=
EXTT4=
EXTT5=
EXTT6=
EXTT7=
EXTT8=
EXTT9=
EXTT10=
EXTT11=
EXTT12=
EXTT13=
EXTT14=
EXTT15=
PLAYORDER=
